<mxfile host="app.diagrams.net" modified="2023-12-20T03:38:01.760Z" agent="Mozilla/5.0 (Windows NT 10.0; Win64; x64) AppleWebKit/537.36 (KHTML, like Gecko) Chrome/120.0.0.0 Safari/537.36" etag="bVpd4TQ5YG5wZ70nS4En" version="22.1.11" type="device">
  <diagram name="페이지-1" id="-9kYVZUIbWZYHaVwmAR1">
    <mxGraphModel dx="3550" dy="1830" grid="1" gridSize="10" guides="1" tooltips="1" connect="1" arrows="1" fold="1" page="1" pageScale="1" pageWidth="2336" pageHeight="1654" math="0" shadow="0">
      <root>
        <mxCell id="0" />
        <mxCell id="1" parent="0" />
        <mxCell id="Omis2yteOAZ9eG1iLl5r-147" value="" style="group;movable=0;resizable=0;rotatable=0;deletable=0;editable=0;locked=1;connectable=0;" vertex="1" connectable="0" parent="1">
          <mxGeometry x="388" y="610" width="1560" height="440" as="geometry" />
        </mxCell>
        <mxCell id="Omis2yteOAZ9eG1iLl5r-142" value="" style="group;movable=0;resizable=0;rotatable=0;deletable=0;editable=0;locked=1;connectable=0;" vertex="1" connectable="0" parent="Omis2yteOAZ9eG1iLl5r-147">
          <mxGeometry y="50" width="1560" height="390" as="geometry" />
        </mxCell>
        <mxCell id="Omis2yteOAZ9eG1iLl5r-140" value="" style="rounded=1;whiteSpace=wrap;html=1;fillColor=#fff2cc;strokeColor=#d6b656;movable=0;resizable=0;rotatable=0;deletable=0;editable=0;locked=1;connectable=0;" vertex="1" parent="Omis2yteOAZ9eG1iLl5r-142">
          <mxGeometry width="1560" height="390" as="geometry" />
        </mxCell>
        <mxCell id="Omis2yteOAZ9eG1iLl5r-42" value="할 일 카드&lt;br&gt;조회됨" style="rounded=1;whiteSpace=wrap;html=1;fillColor=#f8cecc;strokeColor=#b85450;movable=0;resizable=0;rotatable=0;deletable=0;editable=0;locked=1;connectable=0;" vertex="1" parent="Omis2yteOAZ9eG1iLl5r-142">
          <mxGeometry x="330" y="144.5" width="100" height="100" as="geometry" />
        </mxCell>
        <mxCell id="Omis2yteOAZ9eG1iLl5r-43" value="할 일 카드&lt;br&gt;생성됨" style="rounded=1;whiteSpace=wrap;html=1;fillColor=#f8cecc;strokeColor=#b85450;movable=0;resizable=0;rotatable=0;deletable=0;editable=0;locked=1;connectable=0;" vertex="1" parent="Omis2yteOAZ9eG1iLl5r-142">
          <mxGeometry x="670" y="144.5" width="100" height="100" as="geometry" />
        </mxCell>
        <mxCell id="Omis2yteOAZ9eG1iLl5r-44" value="할 일 카드&lt;br&gt;수정됨" style="rounded=1;whiteSpace=wrap;html=1;fillColor=#f8cecc;strokeColor=#b85450;movable=0;resizable=0;rotatable=0;deletable=0;editable=0;locked=1;connectable=0;" vertex="1" parent="Omis2yteOAZ9eG1iLl5r-142">
          <mxGeometry x="1000" y="144.5" width="100" height="100" as="geometry" />
        </mxCell>
        <mxCell id="Omis2yteOAZ9eG1iLl5r-45" value="할 일 카드&lt;br&gt;삭제됨" style="rounded=1;whiteSpace=wrap;html=1;fillColor=#f8cecc;strokeColor=#b85450;movable=0;resizable=0;rotatable=0;deletable=0;editable=0;locked=1;connectable=0;" vertex="1" parent="Omis2yteOAZ9eG1iLl5r-142">
          <mxGeometry x="1330" y="144.5" width="100" height="100" as="geometry" />
        </mxCell>
        <mxCell id="Omis2yteOAZ9eG1iLl5r-75" value="할 일 카드&lt;br&gt;조회" style="rounded=1;whiteSpace=wrap;html=1;fillColor=#d5e8d4;strokeColor=#82b366;movable=0;resizable=0;rotatable=0;deletable=0;editable=0;locked=1;connectable=0;" vertex="1" parent="Omis2yteOAZ9eG1iLl5r-142">
          <mxGeometry x="230" y="145" width="100" height="100" as="geometry" />
        </mxCell>
        <mxCell id="Omis2yteOAZ9eG1iLl5r-76" value="할 일 카드&lt;br&gt;생성" style="rounded=1;whiteSpace=wrap;html=1;fillColor=#d5e8d4;strokeColor=#82b366;movable=0;resizable=0;rotatable=0;deletable=0;editable=0;locked=1;connectable=0;" vertex="1" parent="Omis2yteOAZ9eG1iLl5r-142">
          <mxGeometry x="570" y="144.5" width="100" height="100" as="geometry" />
        </mxCell>
        <mxCell id="Omis2yteOAZ9eG1iLl5r-77" value="할 일 카드&lt;br&gt;수정" style="rounded=1;whiteSpace=wrap;html=1;fillColor=#d5e8d4;strokeColor=#82b366;movable=0;resizable=0;rotatable=0;deletable=0;editable=0;locked=1;connectable=0;" vertex="1" parent="Omis2yteOAZ9eG1iLl5r-142">
          <mxGeometry x="900" y="144.5" width="100" height="100" as="geometry" />
        </mxCell>
        <mxCell id="Omis2yteOAZ9eG1iLl5r-80" value="할 일 카드&lt;br&gt;삭제" style="rounded=1;whiteSpace=wrap;html=1;fillColor=#d5e8d4;strokeColor=#82b366;movable=0;resizable=0;rotatable=0;deletable=0;editable=0;locked=1;connectable=0;" vertex="1" parent="Omis2yteOAZ9eG1iLl5r-142">
          <mxGeometry x="1230" y="144.5" width="100" height="100" as="geometry" />
        </mxCell>
        <mxCell id="Omis2yteOAZ9eG1iLl5r-101" value="" style="group;movable=0;resizable=0;rotatable=0;deletable=0;editable=0;locked=1;connectable=0;" vertex="1" connectable="0" parent="Omis2yteOAZ9eG1iLl5r-142">
          <mxGeometry x="130" y="95" width="100" height="199" as="geometry" />
        </mxCell>
        <mxCell id="Omis2yteOAZ9eG1iLl5r-105" value="" style="group;movable=0;resizable=0;rotatable=0;deletable=0;editable=0;locked=1;connectable=0;" vertex="1" connectable="0" parent="Omis2yteOAZ9eG1iLl5r-101">
          <mxGeometry width="100" height="199" as="geometry" />
        </mxCell>
        <mxCell id="Omis2yteOAZ9eG1iLl5r-99" value="Admin" style="rounded=1;whiteSpace=wrap;html=1;fillColor=#f5f5f5;fontColor=#333333;strokeColor=#666666;movable=0;resizable=0;rotatable=0;deletable=0;editable=0;locked=1;connectable=0;" vertex="1" parent="Omis2yteOAZ9eG1iLl5r-105">
          <mxGeometry width="100" height="99" as="geometry" />
        </mxCell>
        <mxCell id="Omis2yteOAZ9eG1iLl5r-100" value="Visitor" style="rounded=1;whiteSpace=wrap;html=1;fillColor=#f5f5f5;fontColor=#333333;strokeColor=#666666;movable=0;resizable=0;rotatable=0;deletable=0;editable=0;locked=1;connectable=0;" vertex="1" parent="Omis2yteOAZ9eG1iLl5r-105">
          <mxGeometry y="99" width="100" height="100" as="geometry" />
        </mxCell>
        <mxCell id="Omis2yteOAZ9eG1iLl5r-106" value="" style="group;movable=0;resizable=0;rotatable=0;deletable=0;editable=0;locked=1;connectable=0;" vertex="1" connectable="0" parent="Omis2yteOAZ9eG1iLl5r-142">
          <mxGeometry x="470" y="95.5" width="100" height="199" as="geometry" />
        </mxCell>
        <mxCell id="Omis2yteOAZ9eG1iLl5r-107" value="" style="group;movable=0;resizable=0;rotatable=0;deletable=0;editable=0;locked=1;connectable=0;" vertex="1" connectable="0" parent="Omis2yteOAZ9eG1iLl5r-106">
          <mxGeometry width="100" height="199" as="geometry" />
        </mxCell>
        <mxCell id="Omis2yteOAZ9eG1iLl5r-108" value="Admin" style="rounded=1;whiteSpace=wrap;html=1;fillColor=#f5f5f5;fontColor=#333333;strokeColor=#666666;movable=0;resizable=0;rotatable=0;deletable=0;editable=0;locked=1;connectable=0;" vertex="1" parent="Omis2yteOAZ9eG1iLl5r-107">
          <mxGeometry width="100" height="99" as="geometry" />
        </mxCell>
        <mxCell id="Omis2yteOAZ9eG1iLl5r-109" value="Visitor" style="rounded=1;whiteSpace=wrap;html=1;fillColor=#f5f5f5;fontColor=#333333;strokeColor=#666666;movable=0;resizable=0;rotatable=0;deletable=0;editable=0;locked=1;connectable=0;" vertex="1" parent="Omis2yteOAZ9eG1iLl5r-107">
          <mxGeometry y="99" width="100" height="100" as="geometry" />
        </mxCell>
        <mxCell id="Omis2yteOAZ9eG1iLl5r-118" value="" style="group;movable=0;resizable=0;rotatable=0;deletable=0;editable=0;locked=1;connectable=0;" vertex="1" connectable="0" parent="Omis2yteOAZ9eG1iLl5r-142">
          <mxGeometry x="800" y="95" width="100" height="199" as="geometry" />
        </mxCell>
        <mxCell id="Omis2yteOAZ9eG1iLl5r-119" value="" style="group;movable=0;resizable=0;rotatable=0;deletable=0;editable=0;locked=1;connectable=0;" vertex="1" connectable="0" parent="Omis2yteOAZ9eG1iLl5r-118">
          <mxGeometry width="100" height="199" as="geometry" />
        </mxCell>
        <mxCell id="Omis2yteOAZ9eG1iLl5r-120" value="Admin" style="rounded=1;whiteSpace=wrap;html=1;fillColor=#f5f5f5;fontColor=#333333;strokeColor=#666666;movable=0;resizable=0;rotatable=0;deletable=0;editable=0;locked=1;connectable=0;" vertex="1" parent="Omis2yteOAZ9eG1iLl5r-119">
          <mxGeometry width="100" height="99" as="geometry" />
        </mxCell>
        <mxCell id="Omis2yteOAZ9eG1iLl5r-121" value="Visitor" style="rounded=1;whiteSpace=wrap;html=1;fillColor=#f5f5f5;fontColor=#333333;strokeColor=#666666;movable=0;resizable=0;rotatable=0;deletable=0;editable=0;locked=1;connectable=0;" vertex="1" parent="Omis2yteOAZ9eG1iLl5r-119">
          <mxGeometry y="99" width="100" height="100" as="geometry" />
        </mxCell>
        <mxCell id="Omis2yteOAZ9eG1iLl5r-126" value="" style="group;movable=0;resizable=0;rotatable=0;deletable=0;editable=0;locked=1;connectable=0;" vertex="1" connectable="0" parent="Omis2yteOAZ9eG1iLl5r-142">
          <mxGeometry x="1130" y="95" width="100" height="199" as="geometry" />
        </mxCell>
        <mxCell id="Omis2yteOAZ9eG1iLl5r-127" value="" style="group;movable=0;resizable=0;rotatable=0;deletable=0;editable=0;locked=1;connectable=0;" vertex="1" connectable="0" parent="Omis2yteOAZ9eG1iLl5r-126">
          <mxGeometry width="100" height="199" as="geometry" />
        </mxCell>
        <mxCell id="Omis2yteOAZ9eG1iLl5r-128" value="Admin" style="rounded=1;whiteSpace=wrap;html=1;fillColor=#f5f5f5;fontColor=#333333;strokeColor=#666666;movable=0;resizable=0;rotatable=0;deletable=0;editable=0;locked=1;connectable=0;" vertex="1" parent="Omis2yteOAZ9eG1iLl5r-127">
          <mxGeometry width="100" height="99" as="geometry" />
        </mxCell>
        <mxCell id="Omis2yteOAZ9eG1iLl5r-129" value="Visitor" style="rounded=1;whiteSpace=wrap;html=1;fillColor=#f5f5f5;fontColor=#333333;strokeColor=#666666;movable=0;resizable=0;rotatable=0;deletable=0;editable=0;locked=1;connectable=0;" vertex="1" parent="Omis2yteOAZ9eG1iLl5r-127">
          <mxGeometry y="99" width="100" height="100" as="geometry" />
        </mxCell>
        <mxCell id="Omis2yteOAZ9eG1iLl5r-145" value="&lt;span style=&quot;font-size: 18px;&quot;&gt;&lt;b&gt;Card&lt;/b&gt;&lt;/span&gt;" style="rounded=1;whiteSpace=wrap;html=1;fillColor=#FFDA99;strokeColor=#d6b656;movable=0;resizable=0;rotatable=0;deletable=0;editable=0;locked=1;connectable=0;" vertex="1" parent="Omis2yteOAZ9eG1iLl5r-147">
          <mxGeometry x="730" width="100" height="100" as="geometry" />
        </mxCell>
        <mxCell id="Omis2yteOAZ9eG1iLl5r-148" value="" style="group;movable=0;resizable=0;rotatable=0;deletable=0;editable=0;locked=1;connectable=0;" vertex="1" connectable="0" parent="1">
          <mxGeometry x="388" y="1120" width="1560" height="442" as="geometry" />
        </mxCell>
        <mxCell id="Omis2yteOAZ9eG1iLl5r-144" value="" style="group;movable=0;resizable=0;rotatable=0;deletable=0;editable=0;locked=1;connectable=0;" vertex="1" connectable="0" parent="Omis2yteOAZ9eG1iLl5r-148">
          <mxGeometry y="52" width="1560" height="390" as="geometry" />
        </mxCell>
        <mxCell id="Omis2yteOAZ9eG1iLl5r-141" value="" style="rounded=1;whiteSpace=wrap;html=1;fillColor=#fff2cc;strokeColor=#d6b656;movable=0;resizable=0;rotatable=0;deletable=0;editable=0;locked=1;connectable=0;" vertex="1" parent="Omis2yteOAZ9eG1iLl5r-144">
          <mxGeometry width="1560" height="390" as="geometry" />
        </mxCell>
        <mxCell id="Omis2yteOAZ9eG1iLl5r-48" value="댓글 조회됨" style="rounded=1;whiteSpace=wrap;html=1;fillColor=#f8cecc;strokeColor=#b85450;movable=0;resizable=0;rotatable=0;deletable=0;editable=0;locked=1;connectable=0;" vertex="1" parent="Omis2yteOAZ9eG1iLl5r-144">
          <mxGeometry x="330" y="135" width="100" height="100" as="geometry" />
        </mxCell>
        <mxCell id="Omis2yteOAZ9eG1iLl5r-49" value="댓글 생성됨" style="rounded=1;whiteSpace=wrap;html=1;fillColor=#f8cecc;strokeColor=#b85450;movable=0;resizable=0;rotatable=0;deletable=0;editable=0;locked=1;connectable=0;" vertex="1" parent="Omis2yteOAZ9eG1iLl5r-144">
          <mxGeometry x="670" y="134.5" width="100" height="100" as="geometry" />
        </mxCell>
        <mxCell id="Omis2yteOAZ9eG1iLl5r-50" value="댓글 수정됨" style="rounded=1;whiteSpace=wrap;html=1;fillColor=#f8cecc;strokeColor=#b85450;movable=0;resizable=0;rotatable=0;deletable=0;editable=0;locked=1;connectable=0;" vertex="1" parent="Omis2yteOAZ9eG1iLl5r-144">
          <mxGeometry x="1000" y="134.5" width="100" height="100" as="geometry" />
        </mxCell>
        <mxCell id="Omis2yteOAZ9eG1iLl5r-51" value="댓글 삭제됨" style="rounded=1;whiteSpace=wrap;html=1;fillColor=#f8cecc;strokeColor=#b85450;movable=0;resizable=0;rotatable=0;deletable=0;editable=0;locked=1;connectable=0;" vertex="1" parent="Omis2yteOAZ9eG1iLl5r-144">
          <mxGeometry x="1330" y="135" width="100" height="100" as="geometry" />
        </mxCell>
        <mxCell id="Omis2yteOAZ9eG1iLl5r-82" value="댓글 삭제" style="rounded=1;whiteSpace=wrap;html=1;fillColor=#d5e8d4;strokeColor=#82b366;movable=0;resizable=0;rotatable=0;deletable=0;editable=0;locked=1;connectable=0;" vertex="1" parent="Omis2yteOAZ9eG1iLl5r-144">
          <mxGeometry x="1230" y="135" width="100" height="100" as="geometry" />
        </mxCell>
        <mxCell id="Omis2yteOAZ9eG1iLl5r-83" value="댓글 수정" style="rounded=1;whiteSpace=wrap;html=1;fillColor=#d5e8d4;strokeColor=#82b366;movable=0;resizable=0;rotatable=0;deletable=0;editable=0;locked=1;connectable=0;" vertex="1" parent="Omis2yteOAZ9eG1iLl5r-144">
          <mxGeometry x="900" y="134.5" width="100" height="100" as="geometry" />
        </mxCell>
        <mxCell id="Omis2yteOAZ9eG1iLl5r-84" value="댓글 생성" style="rounded=1;whiteSpace=wrap;html=1;fillColor=#d5e8d4;strokeColor=#82b366;movable=0;resizable=0;rotatable=0;deletable=0;editable=0;locked=1;connectable=0;" vertex="1" parent="Omis2yteOAZ9eG1iLl5r-144">
          <mxGeometry x="570" y="134.5" width="100" height="100" as="geometry" />
        </mxCell>
        <mxCell id="Omis2yteOAZ9eG1iLl5r-85" value="댓글 조회" style="rounded=1;whiteSpace=wrap;html=1;fillColor=#d5e8d4;strokeColor=#82b366;movable=0;resizable=0;rotatable=0;deletable=0;editable=0;locked=1;connectable=0;" vertex="1" parent="Omis2yteOAZ9eG1iLl5r-144">
          <mxGeometry x="230" y="135" width="100" height="100" as="geometry" />
        </mxCell>
        <mxCell id="Omis2yteOAZ9eG1iLl5r-102" value="" style="group;movable=0;resizable=0;rotatable=0;deletable=0;editable=0;locked=1;connectable=0;" vertex="1" connectable="0" parent="Omis2yteOAZ9eG1iLl5r-144">
          <mxGeometry x="130" y="85" width="100" height="199" as="geometry" />
        </mxCell>
        <mxCell id="Omis2yteOAZ9eG1iLl5r-103" value="Admin" style="rounded=1;whiteSpace=wrap;html=1;fillColor=#f5f5f5;fontColor=#333333;strokeColor=#666666;movable=0;resizable=0;rotatable=0;deletable=0;editable=0;locked=1;connectable=0;" vertex="1" parent="Omis2yteOAZ9eG1iLl5r-102">
          <mxGeometry width="100" height="99" as="geometry" />
        </mxCell>
        <mxCell id="Omis2yteOAZ9eG1iLl5r-104" value="Visitor" style="rounded=1;whiteSpace=wrap;html=1;fillColor=#f5f5f5;fontColor=#333333;strokeColor=#666666;movable=0;resizable=0;rotatable=0;deletable=0;editable=0;locked=1;connectable=0;" vertex="1" parent="Omis2yteOAZ9eG1iLl5r-102">
          <mxGeometry y="99" width="100" height="100" as="geometry" />
        </mxCell>
        <mxCell id="Omis2yteOAZ9eG1iLl5r-110" value="" style="group;movable=0;resizable=0;rotatable=0;deletable=0;editable=0;locked=1;connectable=0;" vertex="1" connectable="0" parent="Omis2yteOAZ9eG1iLl5r-144">
          <mxGeometry x="470" y="85" width="100" height="199" as="geometry" />
        </mxCell>
        <mxCell id="Omis2yteOAZ9eG1iLl5r-111" value="" style="group;movable=0;resizable=0;rotatable=0;deletable=0;editable=0;locked=1;connectable=0;" vertex="1" connectable="0" parent="Omis2yteOAZ9eG1iLl5r-110">
          <mxGeometry width="100" height="199" as="geometry" />
        </mxCell>
        <mxCell id="Omis2yteOAZ9eG1iLl5r-112" value="Admin" style="rounded=1;whiteSpace=wrap;html=1;fillColor=#f5f5f5;fontColor=#333333;strokeColor=#666666;movable=0;resizable=0;rotatable=0;deletable=0;editable=0;locked=1;connectable=0;" vertex="1" parent="Omis2yteOAZ9eG1iLl5r-111">
          <mxGeometry width="100" height="99" as="geometry" />
        </mxCell>
        <mxCell id="Omis2yteOAZ9eG1iLl5r-113" value="Visitor" style="rounded=1;whiteSpace=wrap;html=1;fillColor=#f5f5f5;fontColor=#333333;strokeColor=#666666;movable=0;resizable=0;rotatable=0;deletable=0;editable=0;locked=1;connectable=0;" vertex="1" parent="Omis2yteOAZ9eG1iLl5r-111">
          <mxGeometry y="99" width="100" height="100" as="geometry" />
        </mxCell>
        <mxCell id="Omis2yteOAZ9eG1iLl5r-122" value="" style="group;movable=0;resizable=0;rotatable=0;deletable=0;editable=0;locked=1;connectable=0;" vertex="1" connectable="0" parent="Omis2yteOAZ9eG1iLl5r-144">
          <mxGeometry x="800" y="85" width="100" height="199" as="geometry" />
        </mxCell>
        <mxCell id="Omis2yteOAZ9eG1iLl5r-123" value="" style="group;movable=0;resizable=0;rotatable=0;deletable=0;editable=0;locked=1;connectable=0;" vertex="1" connectable="0" parent="Omis2yteOAZ9eG1iLl5r-122">
          <mxGeometry width="100" height="199" as="geometry" />
        </mxCell>
        <mxCell id="Omis2yteOAZ9eG1iLl5r-124" value="Admin" style="rounded=1;whiteSpace=wrap;html=1;fillColor=#f5f5f5;fontColor=#333333;strokeColor=#666666;movable=0;resizable=0;rotatable=0;deletable=0;editable=0;locked=1;connectable=0;" vertex="1" parent="Omis2yteOAZ9eG1iLl5r-123">
          <mxGeometry width="100" height="99" as="geometry" />
        </mxCell>
        <mxCell id="Omis2yteOAZ9eG1iLl5r-125" value="Visitor" style="rounded=1;whiteSpace=wrap;html=1;fillColor=#f5f5f5;fontColor=#333333;strokeColor=#666666;movable=0;resizable=0;rotatable=0;deletable=0;editable=0;locked=1;connectable=0;" vertex="1" parent="Omis2yteOAZ9eG1iLl5r-123">
          <mxGeometry y="99" width="100" height="100" as="geometry" />
        </mxCell>
        <mxCell id="Omis2yteOAZ9eG1iLl5r-130" value="" style="group;movable=0;resizable=0;rotatable=0;deletable=0;editable=0;locked=1;connectable=0;" vertex="1" connectable="0" parent="Omis2yteOAZ9eG1iLl5r-144">
          <mxGeometry x="1130" y="85" width="100" height="199" as="geometry" />
        </mxCell>
        <mxCell id="Omis2yteOAZ9eG1iLl5r-131" value="" style="group;movable=0;resizable=0;rotatable=0;deletable=0;editable=0;locked=1;connectable=0;" vertex="1" connectable="0" parent="Omis2yteOAZ9eG1iLl5r-130">
          <mxGeometry width="100" height="199" as="geometry" />
        </mxCell>
        <mxCell id="Omis2yteOAZ9eG1iLl5r-132" value="Admin" style="rounded=1;whiteSpace=wrap;html=1;fillColor=#f5f5f5;fontColor=#333333;strokeColor=#666666;movable=0;resizable=0;rotatable=0;deletable=0;editable=0;locked=1;connectable=0;" vertex="1" parent="Omis2yteOAZ9eG1iLl5r-131">
          <mxGeometry width="100" height="99" as="geometry" />
        </mxCell>
        <mxCell id="Omis2yteOAZ9eG1iLl5r-133" value="Visitor" style="rounded=1;whiteSpace=wrap;html=1;fillColor=#f5f5f5;fontColor=#333333;strokeColor=#666666;movable=0;resizable=0;rotatable=0;deletable=0;editable=0;locked=1;connectable=0;" vertex="1" parent="Omis2yteOAZ9eG1iLl5r-131">
          <mxGeometry y="99" width="100" height="100" as="geometry" />
        </mxCell>
        <mxCell id="Omis2yteOAZ9eG1iLl5r-146" value="&lt;span style=&quot;font-size: 18px;&quot;&gt;&lt;b&gt;Comment&lt;/b&gt;&lt;/span&gt;" style="rounded=1;whiteSpace=wrap;html=1;fillColor=#FFDA99;strokeColor=#d6b656;movable=0;resizable=0;rotatable=0;deletable=0;editable=0;locked=1;connectable=0;" vertex="1" parent="Omis2yteOAZ9eG1iLl5r-148">
          <mxGeometry x="730" width="100" height="100" as="geometry" />
        </mxCell>
        <mxCell id="Omis2yteOAZ9eG1iLl5r-46" value="&lt;div style=&quot;&quot;&gt;&lt;span style=&quot;background-color: initial;&quot;&gt;할일카드,댓글은&lt;/span&gt;&lt;/div&gt;&lt;span style=&quot;background-color: initial;&quot;&gt;&lt;div style=&quot;&quot;&gt;&lt;span style=&quot;background-color: initial;&quot;&gt;Admin을 제외하고&lt;/span&gt;&lt;/div&gt;&lt;/span&gt;&lt;span style=&quot;background-color: initial;&quot;&gt;&lt;div style=&quot;&quot;&gt;&lt;span style=&quot;background-color: initial;&quot;&gt;본인만 수정, 삭제&lt;/span&gt;&lt;/div&gt;&lt;/span&gt;&lt;span style=&quot;background-color: initial;&quot;&gt;&lt;div style=&quot;&quot;&gt;가능&lt;/div&gt;&lt;/span&gt;" style="rounded=1;whiteSpace=wrap;html=1;fillColor=#dae8fc;strokeColor=#6c8ebf;align=center;movable=0;resizable=0;rotatable=0;deletable=0;editable=0;locked=1;connectable=0;" vertex="1" parent="Omis2yteOAZ9eG1iLl5r-148">
          <mxGeometry x="1152" y="-60" width="120" height="100" as="geometry" />
        </mxCell>
        <mxCell id="Omis2yteOAZ9eG1iLl5r-52" value="" style="edgeStyle=orthogonalEdgeStyle;rounded=0;orthogonalLoop=1;jettySize=auto;html=1;movable=0;resizable=0;rotatable=0;deletable=0;editable=0;locked=1;connectable=0;" edge="1" parent="Omis2yteOAZ9eG1iLl5r-148" source="Omis2yteOAZ9eG1iLl5r-46" target="Omis2yteOAZ9eG1iLl5r-50">
          <mxGeometry relative="1" as="geometry" />
        </mxCell>
        <mxCell id="Omis2yteOAZ9eG1iLl5r-59" style="edgeStyle=orthogonalEdgeStyle;rounded=0;orthogonalLoop=1;jettySize=auto;html=1;movable=0;resizable=0;rotatable=0;deletable=0;editable=0;locked=1;connectable=0;" edge="1" parent="Omis2yteOAZ9eG1iLl5r-148" source="Omis2yteOAZ9eG1iLl5r-46" target="Omis2yteOAZ9eG1iLl5r-51">
          <mxGeometry relative="1" as="geometry" />
        </mxCell>
        <mxCell id="Omis2yteOAZ9eG1iLl5r-1" value="" style="whiteSpace=wrap;html=1;aspect=fixed;fillColor=#f5f5f5;fontColor=#333333;strokeColor=#666666;movable=0;resizable=0;rotatable=0;deletable=0;editable=0;locked=1;connectable=0;" vertex="1" parent="1">
          <mxGeometry x="20" y="20" width="20" height="20" as="geometry" />
        </mxCell>
        <mxCell id="Omis2yteOAZ9eG1iLl5r-15" value="사용자" style="text;html=1;strokeColor=none;fillColor=none;align=center;verticalAlign=middle;whiteSpace=wrap;rounded=0;movable=0;resizable=0;rotatable=0;deletable=0;editable=0;locked=1;connectable=0;" vertex="1" parent="1">
          <mxGeometry x="40" y="15" width="60" height="30" as="geometry" />
        </mxCell>
        <mxCell id="Omis2yteOAZ9eG1iLl5r-16" value="" style="whiteSpace=wrap;html=1;aspect=fixed;fillColor=#f8cecc;strokeColor=#b85450;movable=0;resizable=0;rotatable=0;deletable=0;editable=0;locked=1;connectable=0;" vertex="1" parent="1">
          <mxGeometry x="100" y="20" width="20" height="20" as="geometry" />
        </mxCell>
        <mxCell id="Omis2yteOAZ9eG1iLl5r-17" value="Event" style="text;html=1;strokeColor=none;fillColor=none;align=center;verticalAlign=middle;whiteSpace=wrap;rounded=0;movable=0;resizable=0;rotatable=0;deletable=0;editable=0;locked=1;connectable=0;" vertex="1" parent="1">
          <mxGeometry x="120" y="15" width="60" height="30" as="geometry" />
        </mxCell>
        <mxCell id="Omis2yteOAZ9eG1iLl5r-18" value="" style="whiteSpace=wrap;html=1;aspect=fixed;fillColor=#d5e8d4;strokeColor=#82b366;movable=0;resizable=0;rotatable=0;deletable=0;editable=0;locked=1;connectable=0;" vertex="1" parent="1">
          <mxGeometry x="180" y="20" width="20" height="20" as="geometry" />
        </mxCell>
        <mxCell id="Omis2yteOAZ9eG1iLl5r-19" value="Command" style="text;html=1;strokeColor=none;fillColor=none;align=center;verticalAlign=middle;whiteSpace=wrap;rounded=0;movable=0;resizable=0;rotatable=0;deletable=0;editable=0;locked=1;connectable=0;" vertex="1" parent="1">
          <mxGeometry x="210" y="15" width="60" height="30" as="geometry" />
        </mxCell>
        <mxCell id="Omis2yteOAZ9eG1iLl5r-20" value="" style="whiteSpace=wrap;html=1;aspect=fixed;fillColor=#dae8fc;strokeColor=#6c8ebf;movable=0;resizable=0;rotatable=0;deletable=0;editable=0;locked=1;connectable=0;" vertex="1" parent="1">
          <mxGeometry x="280" y="20" width="20" height="20" as="geometry" />
        </mxCell>
        <mxCell id="Omis2yteOAZ9eG1iLl5r-21" value="Policy" style="text;html=1;strokeColor=none;fillColor=none;align=center;verticalAlign=middle;whiteSpace=wrap;rounded=0;movable=0;resizable=0;rotatable=0;deletable=0;editable=0;locked=1;connectable=0;" vertex="1" parent="1">
          <mxGeometry x="300" y="15" width="60" height="30" as="geometry" />
        </mxCell>
        <mxCell id="Omis2yteOAZ9eG1iLl5r-22" value="" style="whiteSpace=wrap;html=1;aspect=fixed;fillColor=#e1d5e7;strokeColor=#9673a6;movable=0;resizable=0;rotatable=0;deletable=0;editable=0;locked=1;connectable=0;" vertex="1" parent="1">
          <mxGeometry x="360" y="20" width="20" height="20" as="geometry" />
        </mxCell>
        <mxCell id="Omis2yteOAZ9eG1iLl5r-23" value="Hotspot" style="text;html=1;strokeColor=none;fillColor=none;align=center;verticalAlign=middle;whiteSpace=wrap;rounded=0;movable=0;resizable=0;rotatable=0;deletable=0;editable=0;locked=1;connectable=0;" vertex="1" parent="1">
          <mxGeometry x="380" y="15" width="60" height="30" as="geometry" />
        </mxCell>
        <mxCell id="Omis2yteOAZ9eG1iLl5r-24" value="" style="whiteSpace=wrap;html=1;aspect=fixed;fillColor=#fff2cc;strokeColor=#d6b656;movable=0;resizable=0;rotatable=0;deletable=0;editable=0;locked=1;connectable=0;" vertex="1" parent="1">
          <mxGeometry x="440" y="20" width="20" height="20" as="geometry" />
        </mxCell>
        <mxCell id="Omis2yteOAZ9eG1iLl5r-25" value="Aggregate" style="text;html=1;strokeColor=none;fillColor=none;align=center;verticalAlign=middle;whiteSpace=wrap;rounded=0;movable=0;resizable=0;rotatable=0;deletable=0;editable=0;locked=1;connectable=0;" vertex="1" parent="1">
          <mxGeometry x="470" y="15" width="60" height="30" as="geometry" />
        </mxCell>
        <mxCell id="Omis2yteOAZ9eG1iLl5r-26" value="Admin" style="rounded=1;whiteSpace=wrap;html=1;fillColor=#f5f5f5;fontColor=#333333;strokeColor=#666666;movable=0;resizable=0;rotatable=0;deletable=0;editable=0;locked=1;connectable=0;" vertex="1" parent="1">
          <mxGeometry x="20" y="70" width="70" height="70" as="geometry" />
        </mxCell>
        <mxCell id="Omis2yteOAZ9eG1iLl5r-29" value="Visitor" style="rounded=1;whiteSpace=wrap;html=1;fillColor=#f5f5f5;fontColor=#333333;strokeColor=#666666;movable=0;resizable=0;rotatable=0;deletable=0;editable=0;locked=1;connectable=0;" vertex="1" parent="1">
          <mxGeometry x="100" y="70" width="70" height="70" as="geometry" />
        </mxCell>
        <mxCell id="Omis2yteOAZ9eG1iLl5r-53" value="" style="edgeStyle=orthogonalEdgeStyle;rounded=0;orthogonalLoop=1;jettySize=auto;html=1;movable=0;resizable=0;rotatable=0;deletable=0;editable=0;locked=1;connectable=0;" edge="1" parent="1" source="Omis2yteOAZ9eG1iLl5r-45" target="Omis2yteOAZ9eG1iLl5r-47">
          <mxGeometry relative="1" as="geometry" />
        </mxCell>
        <mxCell id="Omis2yteOAZ9eG1iLl5r-79" style="edgeStyle=orthogonalEdgeStyle;rounded=0;orthogonalLoop=1;jettySize=auto;html=1;movable=0;resizable=0;rotatable=0;deletable=0;editable=0;locked=1;connectable=0;" edge="1" parent="1" source="Omis2yteOAZ9eG1iLl5r-46" target="Omis2yteOAZ9eG1iLl5r-45">
          <mxGeometry relative="1" as="geometry" />
        </mxCell>
        <mxCell id="Omis2yteOAZ9eG1iLl5r-139" style="edgeStyle=orthogonalEdgeStyle;rounded=0;orthogonalLoop=1;jettySize=auto;html=1;movable=0;resizable=0;rotatable=0;deletable=0;editable=0;locked=1;connectable=0;" edge="1" parent="1" source="Omis2yteOAZ9eG1iLl5r-46" target="Omis2yteOAZ9eG1iLl5r-44">
          <mxGeometry relative="1" as="geometry" />
        </mxCell>
        <mxCell id="Omis2yteOAZ9eG1iLl5r-86" value="" style="edgeStyle=orthogonalEdgeStyle;rounded=0;orthogonalLoop=1;jettySize=auto;html=1;movable=0;resizable=0;rotatable=0;deletable=0;editable=0;locked=1;connectable=0;" edge="1" parent="1" source="Omis2yteOAZ9eG1iLl5r-47" target="Omis2yteOAZ9eG1iLl5r-51">
          <mxGeometry relative="1" as="geometry" />
        </mxCell>
        <mxCell id="Omis2yteOAZ9eG1iLl5r-47" value="&lt;div style=&quot;&quot;&gt;할일 카드를&lt;br&gt;삭제하면 댓글까지&lt;/div&gt;&lt;div style=&quot;&quot;&gt;전부 삭제 됨&lt;/div&gt;" style="rounded=1;whiteSpace=wrap;html=1;fillColor=#dae8fc;strokeColor=#6c8ebf;align=center;movable=0;resizable=0;rotatable=0;deletable=0;editable=0;locked=1;connectable=0;" vertex="1" parent="1">
          <mxGeometry x="1980" y="1307" width="120" height="100" as="geometry" />
        </mxCell>
        <mxCell id="Omis2yteOAZ9eG1iLl5r-143" value="" style="group;movable=0;resizable=0;rotatable=0;deletable=0;editable=0;locked=1;connectable=0;" vertex="1" connectable="0" parent="1">
          <mxGeometry x="388" y="30" width="1560" height="511" as="geometry" />
        </mxCell>
        <mxCell id="Omis2yteOAZ9eG1iLl5r-135" value="" style="rounded=1;whiteSpace=wrap;html=1;fillColor=#fff2cc;strokeColor=#d6b656;movable=0;resizable=0;rotatable=0;deletable=0;editable=0;locked=1;connectable=0;" vertex="1" parent="Omis2yteOAZ9eG1iLl5r-143">
          <mxGeometry y="61" width="1560" height="450" as="geometry" />
        </mxCell>
        <mxCell id="Omis2yteOAZ9eG1iLl5r-30" value="Admin 로그인 됨" style="rounded=1;whiteSpace=wrap;html=1;fillColor=#f8cecc;strokeColor=#b85450;movable=0;resizable=0;rotatable=0;deletable=0;editable=0;locked=1;connectable=0;" vertex="1" parent="Omis2yteOAZ9eG1iLl5r-143">
          <mxGeometry x="780" y="161" width="100" height="100" as="geometry" />
        </mxCell>
        <mxCell id="Omis2yteOAZ9eG1iLl5r-31" value="Admin프로필&lt;br&gt;입력됨" style="rounded=1;whiteSpace=wrap;html=1;fillColor=#f8cecc;strokeColor=#b85450;movable=0;resizable=0;rotatable=0;deletable=0;editable=0;locked=1;connectable=0;" vertex="1" parent="Omis2yteOAZ9eG1iLl5r-143">
          <mxGeometry x="1110" y="162" width="100" height="100" as="geometry" />
        </mxCell>
        <mxCell id="Omis2yteOAZ9eG1iLl5r-32" value="Visitor 회원가입&lt;br&gt;됨" style="rounded=1;whiteSpace=wrap;html=1;fillColor=#f8cecc;strokeColor=#b85450;movable=0;resizable=0;rotatable=0;deletable=0;editable=0;locked=1;connectable=0;" vertex="1" parent="Omis2yteOAZ9eG1iLl5r-143">
          <mxGeometry x="450" y="321" width="100" height="100" as="geometry" />
        </mxCell>
        <mxCell id="Omis2yteOAZ9eG1iLl5r-33" value="Visitor로그인 됨" style="rounded=1;whiteSpace=wrap;html=1;fillColor=#f8cecc;strokeColor=#b85450;movable=0;resizable=0;rotatable=0;deletable=0;editable=0;locked=1;connectable=0;" vertex="1" parent="Omis2yteOAZ9eG1iLl5r-143">
          <mxGeometry x="780" y="321" width="100" height="100" as="geometry" />
        </mxCell>
        <mxCell id="Omis2yteOAZ9eG1iLl5r-34" value="Visitor프로필&lt;br&gt;입력됨" style="rounded=1;whiteSpace=wrap;html=1;fillColor=#f8cecc;strokeColor=#b85450;movable=0;resizable=0;rotatable=0;deletable=0;editable=0;locked=1;connectable=0;" vertex="1" parent="Omis2yteOAZ9eG1iLl5r-143">
          <mxGeometry x="1110" y="321" width="100" height="100" as="geometry" />
        </mxCell>
        <mxCell id="Omis2yteOAZ9eG1iLl5r-35" value="로그아웃 됨" style="rounded=1;whiteSpace=wrap;html=1;fillColor=#f8cecc;strokeColor=#b85450;movable=0;resizable=0;rotatable=0;deletable=0;editable=0;locked=1;connectable=0;" vertex="1" parent="Omis2yteOAZ9eG1iLl5r-143">
          <mxGeometry x="1360" y="241" width="100" height="100" as="geometry" />
        </mxCell>
        <mxCell id="Omis2yteOAZ9eG1iLl5r-36" value="Admin 회원가입 됨" style="rounded=1;whiteSpace=wrap;html=1;fillColor=#f8cecc;strokeColor=#b85450;movable=0;resizable=0;rotatable=0;deletable=0;editable=0;locked=1;connectable=0;" vertex="1" parent="Omis2yteOAZ9eG1iLl5r-143">
          <mxGeometry x="450" y="161" width="100" height="100" as="geometry" />
        </mxCell>
        <mxCell id="Omis2yteOAZ9eG1iLl5r-64" value="Admin 기능을&lt;br&gt;마스터 패스워드로 할지 회원가입시에 권한을 줄지 고민중" style="rounded=1;whiteSpace=wrap;html=1;fillColor=#e1d5e7;strokeColor=#9673a6;movable=0;resizable=0;rotatable=0;deletable=0;editable=0;locked=1;connectable=0;" vertex="1" parent="Omis2yteOAZ9eG1iLl5r-143">
          <mxGeometry x="100" y="241" width="100" height="100" as="geometry" />
        </mxCell>
        <mxCell id="Omis2yteOAZ9eG1iLl5r-65" value="Admin 회원가입&amp;nbsp;" style="rounded=1;whiteSpace=wrap;html=1;fillColor=#d5e8d4;strokeColor=#82b366;movable=0;resizable=0;rotatable=0;deletable=0;editable=0;locked=1;connectable=0;" vertex="1" parent="Omis2yteOAZ9eG1iLl5r-143">
          <mxGeometry x="350" y="161" width="100" height="100" as="geometry" />
        </mxCell>
        <mxCell id="Omis2yteOAZ9eG1iLl5r-66" value="Visitor 회원가입&amp;nbsp;" style="rounded=1;whiteSpace=wrap;html=1;fillColor=#d5e8d4;strokeColor=#82b366;movable=0;resizable=0;rotatable=0;deletable=0;editable=0;locked=1;connectable=0;" vertex="1" parent="Omis2yteOAZ9eG1iLl5r-143">
          <mxGeometry x="350" y="321" width="100" height="100" as="geometry" />
        </mxCell>
        <mxCell id="Omis2yteOAZ9eG1iLl5r-67" value="Visitor 로그인&amp;nbsp;" style="rounded=1;whiteSpace=wrap;html=1;fillColor=#d5e8d4;strokeColor=#82b366;movable=0;resizable=0;rotatable=0;deletable=0;editable=0;locked=1;connectable=0;" vertex="1" parent="Omis2yteOAZ9eG1iLl5r-143">
          <mxGeometry x="680" y="321" width="100" height="100" as="geometry" />
        </mxCell>
        <mxCell id="Omis2yteOAZ9eG1iLl5r-68" value="Admin 로그인&amp;nbsp;" style="rounded=1;whiteSpace=wrap;html=1;fillColor=#d5e8d4;strokeColor=#82b366;movable=0;resizable=0;rotatable=0;deletable=0;editable=0;locked=1;connectable=0;" vertex="1" parent="Omis2yteOAZ9eG1iLl5r-143">
          <mxGeometry x="680" y="160" width="100" height="100" as="geometry" />
        </mxCell>
        <mxCell id="Omis2yteOAZ9eG1iLl5r-69" value="Admin 프로필&lt;br&gt;수정" style="rounded=1;whiteSpace=wrap;html=1;fillColor=#d5e8d4;strokeColor=#82b366;movable=0;resizable=0;rotatable=0;deletable=0;editable=0;locked=1;connectable=0;" vertex="1" parent="Omis2yteOAZ9eG1iLl5r-143">
          <mxGeometry x="1010" y="163" width="100" height="100" as="geometry" />
        </mxCell>
        <mxCell id="Omis2yteOAZ9eG1iLl5r-70" value="Visitor 프로필&lt;br&gt;수정" style="rounded=1;whiteSpace=wrap;html=1;fillColor=#d5e8d4;strokeColor=#82b366;movable=0;resizable=0;rotatable=0;deletable=0;editable=0;locked=1;connectable=0;" vertex="1" parent="Omis2yteOAZ9eG1iLl5r-143">
          <mxGeometry x="1010" y="321" width="100" height="100" as="geometry" />
        </mxCell>
        <mxCell id="Omis2yteOAZ9eG1iLl5r-71" value="로그아웃" style="rounded=1;whiteSpace=wrap;html=1;fillColor=#d5e8d4;strokeColor=#82b366;movable=0;resizable=0;rotatable=0;deletable=0;editable=0;locked=1;connectable=0;" vertex="1" parent="Omis2yteOAZ9eG1iLl5r-143">
          <mxGeometry x="1260" y="241" width="100" height="100" as="geometry" />
        </mxCell>
        <mxCell id="Omis2yteOAZ9eG1iLl5r-87" value="Admin" style="rounded=1;whiteSpace=wrap;html=1;fillColor=#f5f5f5;fontColor=#333333;strokeColor=#666666;movable=0;resizable=0;rotatable=0;deletable=0;editable=0;locked=1;connectable=0;" vertex="1" parent="Omis2yteOAZ9eG1iLl5r-143">
          <mxGeometry x="250" y="162" width="100" height="99" as="geometry" />
        </mxCell>
        <mxCell id="Omis2yteOAZ9eG1iLl5r-88" value="Visitor" style="rounded=1;whiteSpace=wrap;html=1;fillColor=#f5f5f5;fontColor=#333333;strokeColor=#666666;movable=0;resizable=0;rotatable=0;deletable=0;editable=0;locked=1;connectable=0;" vertex="1" parent="Omis2yteOAZ9eG1iLl5r-143">
          <mxGeometry x="250" y="321" width="100" height="100" as="geometry" />
        </mxCell>
        <mxCell id="Omis2yteOAZ9eG1iLl5r-89" value="Admin" style="rounded=1;whiteSpace=wrap;html=1;fillColor=#f5f5f5;fontColor=#333333;strokeColor=#666666;movable=0;resizable=0;rotatable=0;deletable=0;editable=0;locked=1;connectable=0;" vertex="1" parent="Omis2yteOAZ9eG1iLl5r-143">
          <mxGeometry x="580" y="161" width="100" height="99" as="geometry" />
        </mxCell>
        <mxCell id="Omis2yteOAZ9eG1iLl5r-90" value="Admin" style="rounded=1;whiteSpace=wrap;html=1;fillColor=#f5f5f5;fontColor=#333333;strokeColor=#666666;movable=0;resizable=0;rotatable=0;deletable=0;editable=0;locked=1;connectable=0;" vertex="1" parent="Omis2yteOAZ9eG1iLl5r-143">
          <mxGeometry x="910" y="160" width="100" height="99" as="geometry" />
        </mxCell>
        <mxCell id="Omis2yteOAZ9eG1iLl5r-92" value="Visitor" style="rounded=1;whiteSpace=wrap;html=1;fillColor=#f5f5f5;fontColor=#333333;strokeColor=#666666;movable=0;resizable=0;rotatable=0;deletable=0;editable=0;locked=1;connectable=0;" vertex="1" parent="Omis2yteOAZ9eG1iLl5r-143">
          <mxGeometry x="580" y="321" width="100" height="100" as="geometry" />
        </mxCell>
        <mxCell id="Omis2yteOAZ9eG1iLl5r-93" value="Visitor" style="rounded=1;whiteSpace=wrap;html=1;fillColor=#f5f5f5;fontColor=#333333;strokeColor=#666666;movable=0;resizable=0;rotatable=0;deletable=0;editable=0;locked=1;connectable=0;" vertex="1" parent="Omis2yteOAZ9eG1iLl5r-143">
          <mxGeometry x="910" y="321" width="100" height="100" as="geometry" />
        </mxCell>
        <mxCell id="Omis2yteOAZ9eG1iLl5r-138" value="&lt;b style=&quot;border-color: var(--border-color); font-size: 18px;&quot;&gt;User&lt;/b&gt;" style="rounded=1;whiteSpace=wrap;html=1;fillColor=#FFDA99;strokeColor=#d6b656;movable=0;resizable=0;rotatable=0;deletable=0;editable=0;locked=1;connectable=0;" vertex="1" parent="Omis2yteOAZ9eG1iLl5r-143">
          <mxGeometry x="730" width="100" height="100" as="geometry" />
        </mxCell>
        <mxCell id="Omis2yteOAZ9eG1iLl5r-150" value="" style="rounded=1;whiteSpace=wrap;html=1;strokeWidth=3;fillColor=none;strokeColor=#ff6a1a;movable=0;resizable=0;rotatable=0;deletable=0;editable=0;locked=1;connectable=0;" vertex="1" parent="1">
          <mxGeometry x="250" y="583" width="1910" height="1010" as="geometry" />
        </mxCell>
        <mxCell id="Omis2yteOAZ9eG1iLl5r-149" value="&lt;font style=&quot;font-size: 20px;&quot;&gt;&lt;b&gt;TodoCard&lt;br&gt;Aggregate&lt;/b&gt;&lt;/font&gt;" style="rounded=1;whiteSpace=wrap;html=1;fillColor=#f0a30a;fontColor=#000000;strokeColor=#BD7000;movable=0;resizable=0;rotatable=0;deletable=0;editable=0;locked=1;connectable=0;" vertex="1" parent="1">
          <mxGeometry x="140" y="1013" width="150" height="150" as="geometry" />
        </mxCell>
      </root>
    </mxGraphModel>
  </diagram>
</mxfile>
